<svg version="1.2" xmlns="http://www.w3.org/2000/svg" viewBox="0 0 100 80" width="100" height="80">
	<title>home</title>
	<defs>
		<linearGradient id="g1" x2="1" gradientUnits="userSpaceOnUse" gradientTransform="matrix(20.555,10.006,-11.168,22.942,27.767,8.021)">
			<stop offset="0" stop-color="#faf6bd"/>
			<stop offset="1" stop-color="#abbed6"/>
		</linearGradient>
		<linearGradient id="g2" x2="1" gradientUnits="userSpaceOnUse" gradientTransform="matrix(-41.197,5.781,-4.377,-31.197,76.585,66.616)">
			<stop offset="0" stop-color="#faf6bd"/>
			<stop offset="1" stop-color="#abbed6"/>
		</linearGradient>
		<linearGradient id="g3" x2="1" gradientUnits="userSpaceOnUse" gradientTransform="matrix(-41.197,5.781,-4.377,-31.197,76.585,66.616)">
			<stop offset="0" stop-color="#faf6bd"/>
			<stop offset="1" stop-color="#abbed6"/>
		</linearGradient>
		<linearGradient id="g4" x2="1" gradientUnits="userSpaceOnUse" gradientTransform="matrix(-7.168,0,0,-36.657,58.398,64.545)">
			<stop offset="0" stop-color="#faf6bd"/>
			<stop offset="1" stop-color="#abbed6"/>
		</linearGradient>
		<linearGradient id="g5" x2="1" gradientUnits="userSpaceOnUse" gradientTransform="matrix(-10.747,12.05,-9.04,-8.063,53.547,52.317)">
			<stop offset="0" stop-color="#ffffff"/>
			<stop offset="1" stop-color="#61beeb"/>
		</linearGradient>
		<linearGradient id="g6" x2="1" gradientUnits="userSpaceOnUse" gradientTransform="matrix(-10.747,12.05,-2.442,-2.178,53.547,52.317)">
			<stop offset="0" stop-color="#ffffff"/>
			<stop offset="1" stop-color="#61beeb"/>
		</linearGradient>
		<linearGradient id="g7" x2="1" gradientUnits="userSpaceOnUse" gradientTransform="matrix(-10.747,12.05,-2.728,-2.433,46.755,46.259)">
			<stop offset="0" stop-color="#ffffff"/>
			<stop offset="1" stop-color="#61beeb"/>
		</linearGradient>
		<linearGradient id="g8" x2="1" gradientUnits="userSpaceOnUse" gradientTransform="matrix(-10.747,12.05,-2.942,-2.624,52.533,51.412)">
			<stop offset="0" stop-color="#ffffff"/>
			<stop offset="1" stop-color="#61beeb"/>
		</linearGradient>
		<linearGradient id="g9" x2="1" gradientUnits="userSpaceOnUse" gradientTransform="matrix(-16.284,16.039,-11.88,-12.061,54.644,53.3)">
			<stop offset="0" stop-color="#ffffff"/>
			<stop offset=".465" stop-color="#faf6bd"/>
			<stop offset="1" stop-color="#abbed6"/>
		</linearGradient>
		<linearGradient id="g10" x2="1" gradientUnits="userSpaceOnUse" gradientTransform="matrix(10.519,15.275,-7.975,5.492,16.954,45.867)">
			<stop offset="0" stop-color="#ffffff"/>
			<stop offset="1" stop-color="#61beeb"/>
		</linearGradient>
		<linearGradient id="g11" x2="1" gradientUnits="userSpaceOnUse" gradientTransform="matrix(10.519,15.275,-2.214,1.524,16.954,45.867)">
			<stop offset="0" stop-color="#ffffff"/>
			<stop offset="1" stop-color="#61beeb"/>
		</linearGradient>
		<linearGradient id="g12" x2="1" gradientUnits="userSpaceOnUse" gradientTransform="matrix(10.511,15.263,-2.439,1.68,23.862,41.88)">
			<stop offset="0" stop-color="#ffffff"/>
			<stop offset="1" stop-color="#61beeb"/>
		</linearGradient>
		<linearGradient id="g13" x2="1" gradientUnits="userSpaceOnUse" gradientTransform="matrix(10.511,15.264,-2.614,1.8,18.312,45.175)">
			<stop offset="0" stop-color="#ffffff"/>
			<stop offset="1" stop-color="#61beeb"/>
		</linearGradient>
		<linearGradient id="g14" x2="1" gradientUnits="userSpaceOnUse" gradientTransform="matrix(9.2,15.876,-8.487,4.918,37.42,39.509)">
			<stop offset="0" stop-color="#ffffff"/>
			<stop offset=".465" stop-color="#faf6bd"/>
			<stop offset="1" stop-color="#abbed6"/>
		</linearGradient>
		<radialGradient id="g15" cx="0" cy="0" r="1" gradientUnits="userSpaceOnUse" gradientTransform="matrix(19.519,0,0,19.519,72.71,26.947)">
			<stop offset="0" stop-color="#a1539a"/>
			<stop offset=".452" stop-color="#5c539a"/>
			<stop offset="1" stop-color="#3b2555"/>
		</radialGradient>
		<linearGradient id="g16" x2="1" gradientUnits="userSpaceOnUse" gradientTransform="matrix(-7.168,0,0,-36.657,58.398,64.545)">
			<stop offset="0" stop-color="#faf6bd"/>
			<stop offset="1" stop-color="#abbed6"/>
		</linearGradient>
		<linearGradient id="g17" x2="1" gradientUnits="userSpaceOnUse" gradientTransform="matrix(-10.258,-0.814,3.959,-49.882,77.575,65.031)">
			<stop offset="0" stop-color="#faf6bd"/>
			<stop offset="1" stop-color="#abbed6"/>
		</linearGradient>
		<linearGradient id="g18" x2="1" gradientUnits="userSpaceOnUse" gradientTransform="matrix(-12.122,-26.509,29.496,-13.487,57.348,80.168)">
			<stop offset="0" stop-color="#faf6bd"/>
			<stop offset="1" stop-color="#abbed6"/>
		</linearGradient>
		<linearGradient id="g19" x2="1" gradientUnits="userSpaceOnUse" gradientTransform="matrix(7.126,0,0,16.137,63.078,44.055)">
			<stop offset="0" stop-color="#ffffff"/>
			<stop offset=".465" stop-color="#faf6bd"/>
			<stop offset="1" stop-color="#abbed6"/>
		</linearGradient>
		<radialGradient id="g20" cx="0" cy="0" r="1" gradientUnits="userSpaceOnUse" gradientTransform="matrix(29.913,0,0,29.913,74.681,55.996)">
			<stop offset="0" stop-color="#a1539a"/>
			<stop offset=".452" stop-color="#5c539a"/>
			<stop offset="1" stop-color="#3b2555"/>
		</radialGradient>
		<radialGradient id="g21" cx="0" cy="0" r="1" gradientUnits="userSpaceOnUse" gradientTransform="matrix(29.913,0,0,29.913,74.681,55.996)">
			<stop offset="0" stop-color="#a1539a"/>
			<stop offset=".452" stop-color="#5c539a"/>
			<stop offset="1" stop-color="#3b2555"/>
		</radialGradient>
		<linearGradient id="g22" x2="1" gradientUnits="userSpaceOnUse" gradientTransform="matrix(4.302,0,0,4.172,64.47,46.148)">
			<stop offset="0" stop-color="#ffffff"/>
			<stop offset="1" stop-color="#61beeb"/>
		</linearGradient>
		<linearGradient id="g23" x2="1" gradientUnits="userSpaceOnUse" gradientTransform="matrix(5.224,0,0,5.066,64.009,45.701)">
			<stop offset="0" stop-color="#ffffff"/>
			<stop offset=".465" stop-color="#faf6bd"/>
			<stop offset="1" stop-color="#abbed6"/>
		</linearGradient>
		<radialGradient id="g24" cx="0" cy="0" r="1" gradientUnits="userSpaceOnUse" gradientTransform="matrix(.747,0,0,.747,64.664,52.952)">
			<stop offset="0" stop-color="#a1539a"/>
			<stop offset=".452" stop-color="#5c539a"/>
			<stop offset="1" stop-color="#3b2555"/>
		</radialGradient>
		<linearGradient id="g25" x2="1" gradientUnits="userSpaceOnUse" gradientTransform="matrix(1.065,0,0,1.348,64.009,52.124)">
			<stop offset="0" stop-color="#ffffff"/>
			<stop offset=".465" stop-color="#faf6bd"/>
			<stop offset="1" stop-color="#abbed6"/>
		</linearGradient>
		<linearGradient id="g26" x2="1" gradientUnits="userSpaceOnUse" gradientTransform="matrix(20.555,10.006,-11.168,22.942,27.767,8.021)">
			<stop offset="0" stop-color="#faf6bd"/>
			<stop offset="1" stop-color="#abbed6"/>
		</linearGradient>
		<radialGradient id="g27" cx="0" cy="0" r="1" gradientUnits="userSpaceOnUse" gradientTransform="matrix(25.2,0,0,25.2,9.547,25.003)">
			<stop offset="0" stop-color="#a1539a"/>
			<stop offset=".492" stop-color="#5c539a"/>
			<stop offset="1" stop-color="#3b2555"/>
		</radialGradient>
		<radialGradient id="g28" cx="0" cy="0" r="1" gradientUnits="userSpaceOnUse" gradientTransform="matrix(25.201,0,0,25.201,9.547,25.003)">
			<stop offset="0" stop-color="#a1539a"/>
			<stop offset=".492" stop-color="#5c539a"/>
			<stop offset="1" stop-color="#3b2555"/>
		</radialGradient>
		<radialGradient id="g29" cx="0" cy="0" r="1" gradientUnits="userSpaceOnUse" gradientTransform="matrix(10.428,0,0,10.428,24.025,31.198)">
			<stop offset="0" stop-color="#a1539a"/>
			<stop offset=".452" stop-color="#5c539a"/>
			<stop offset="1" stop-color="#3b2555"/>
		</radialGradient>
		<radialGradient id="g30" cx="0" cy="0" r="1" gradientUnits="userSpaceOnUse" gradientTransform="matrix(35.822,0,0,35.822,54.164,28.477)">
			<stop offset="0" stop-color="#a1539a"/>
			<stop offset=".452" stop-color="#5c539a"/>
			<stop offset="1" stop-color="#3b2555"/>
		</radialGradient>
		<radialGradient id="g31" cx="0" cy="0" r="1" gradientUnits="userSpaceOnUse" gradientTransform="matrix(35.822,0,0,35.822,54.164,28.477)">
			<stop offset="0" stop-color="#a1539a"/>
			<stop offset=".452" stop-color="#5c539a"/>
			<stop offset="1" stop-color="#3b2555"/>
		</radialGradient>
		<radialGradient id="g32" cx="0" cy="0" r="1" gradientUnits="userSpaceOnUse" gradientTransform="matrix(15.05,0,0,15.05,56.409,26.987)">
			<stop offset="0" stop-color="#a1539a"/>
			<stop offset=".452" stop-color="#5c539a"/>
			<stop offset="1" stop-color="#3b2555"/>
		</radialGradient>
		<radialGradient id="g33" cx="0" cy="0" r="1" gradientUnits="userSpaceOnUse" gradientTransform="matrix(64.818,0,0,64.818,63.12,13.822)">
			<stop offset="0" stop-color="#a1539a"/>
			<stop offset=".492" stop-color="#5c539a"/>
			<stop offset="1" stop-color="#3b2555"/>
		</radialGradient>
		<radialGradient id="g34" cx="0" cy="0" r="1" gradientUnits="userSpaceOnUse" gradientTransform="matrix(64.82,0,0,64.82,63.12,13.821)">
			<stop offset="0" stop-color="#a1539a"/>
			<stop offset=".492" stop-color="#5c539a"/>
			<stop offset="1" stop-color="#3b2555"/>
		</radialGradient>
		<radialGradient id="g35" cx="0" cy="0" r="1" gradientUnits="userSpaceOnUse" gradientTransform="matrix(7.107,0,0,7.107,51.966,16.02)">
			<stop offset="0" stop-color="#a1539a"/>
			<stop offset=".452" stop-color="#5c539a"/>
			<stop offset="1" stop-color="#3b2555"/>
		</radialGradient>
		<linearGradient id="g36" x2="1" gradientUnits="userSpaceOnUse" gradientTransform="matrix(23.791,11.581,-13.076,26.862,16.126,22.684)">
			<stop offset="0" stop-color="#faf6bd"/>
			<stop offset="1" stop-color="#abbed6"/>
		</linearGradient>
		<linearGradient id="g37" x2="1" gradientUnits="userSpaceOnUse" gradientTransform="matrix(-44.343,6.222,-9.442,-67.288,79.06,63.643)">
			<stop offset="0" stop-color="#faf6bd"/>
			<stop offset="1" stop-color="#abbed6"/>
		</linearGradient>
		<linearGradient id="g38" x2="1" gradientUnits="userSpaceOnUse" gradientTransform="matrix(-41.958,25.461,-26.514,-43.694,103.326,65.604)">
			<stop offset="0" stop-color="#faf6bd"/>
			<stop offset="1" stop-color="#abbed6"/>
		</linearGradient>
		<linearGradient id="g39" x2="1" gradientUnits="userSpaceOnUse" gradientTransform="matrix(-41.958,25.461,-26.514,-43.694,103.326,65.604)">
			<stop offset="0" stop-color="#faf6bd"/>
			<stop offset="1" stop-color="#abbed6"/>
		</linearGradient>
		<linearGradient id="g40" x2="1" gradientUnits="userSpaceOnUse" gradientTransform="matrix(-9.631,-21.062,10.247,-4.686,56.01,74.994)">
			<stop offset="0" stop-color="#faf6bd"/>
			<stop offset="1" stop-color="#abbed6"/>
		</linearGradient>
		<linearGradient id="g41" x2="1" gradientUnits="userSpaceOnUse" gradientTransform="matrix(-10.605,-23.192,18.08,-8.267,52.825,79.521)">
			<stop offset="0" stop-color="#faf6bd"/>
			<stop offset="1" stop-color="#abbed6"/>
		</linearGradient>
		<linearGradient id="g42" x2="1" gradientUnits="userSpaceOnUse" gradientTransform="matrix(-14.891,-1.182,8.417,-106.055,81.014,63.91)">
			<stop offset="0" stop-color="#faf6bd"/>
			<stop offset="1" stop-color="#abbed6"/>
		</linearGradient>
		<linearGradient id="g43" x2="1" gradientUnits="userSpaceOnUse" gradientTransform="matrix(-5.659,-12.375,14.207,-6.496,69.886,48.046)">
			<stop offset="0" stop-color="#faf6bd"/>
			<stop offset="1" stop-color="#abbed6"/>
		</linearGradient>
		<radialGradient id="g44" cx="0" cy="0" r="1" gradientUnits="userSpaceOnUse" gradientTransform="matrix(.233,0,0,.233,68.746,27.688)">
			<stop offset="0" stop-color="#a1539a"/>
			<stop offset=".492" stop-color="#5c539a"/>
			<stop offset="1" stop-color="#3b2555"/>
		</radialGradient>
		<radialGradient id="g45" cx="0" cy="0" r="1" gradientUnits="userSpaceOnUse" gradientTransform="matrix(.013,0,0,.013,68.977,27.947)">
			<stop offset="0" stop-color="#a1539a"/>
			<stop offset=".492" stop-color="#5c539a"/>
			<stop offset="1" stop-color="#3b2555"/>
		</radialGradient>
		<radialGradient id="g46" cx="0" cy="0" r="1" gradientUnits="userSpaceOnUse" gradientTransform="matrix(40.046,0,0,40.046,67.354,22.208)">
			<stop offset="0" stop-color="#a1539a"/>
			<stop offset=".492" stop-color="#5c539a"/>
			<stop offset="1" stop-color="#3b2555"/>
		</radialGradient>
		<radialGradient id="g47" cx="0" cy="0" r="1" gradientUnits="userSpaceOnUse" gradientTransform="matrix(46.312,0,0,46.312,68.249,14.147)">
			<stop offset="0" stop-color="#a1539a"/>
			<stop offset=".492" stop-color="#5c539a"/>
			<stop offset="1" stop-color="#3b2555"/>
		</radialGradient>
		<radialGradient id="g48" cx="0" cy="0" r="1" gradientUnits="userSpaceOnUse" gradientTransform="matrix(40.047,0,0,40.047,67.353,22.207)">
			<stop offset="0" stop-color="#a1539a"/>
			<stop offset=".492" stop-color="#5c539a"/>
			<stop offset="1" stop-color="#3b2555"/>
		</radialGradient>
		<radialGradient id="g49" cx="0" cy="0" r="1" gradientUnits="userSpaceOnUse" gradientTransform="matrix(46.312,0,0,46.312,68.249,14.147)">
			<stop offset="0" stop-color="#a1539a"/>
			<stop offset=".492" stop-color="#5c539a"/>
			<stop offset="1" stop-color="#3b2555"/>
		</radialGradient>
		<radialGradient id="g50" cx="0" cy="0" r="1" gradientUnits="userSpaceOnUse" gradientTransform="matrix(40.048,0,0,40.048,67.353,22.207)">
			<stop offset="0" stop-color="#a1539a"/>
			<stop offset=".492" stop-color="#5c539a"/>
			<stop offset="1" stop-color="#3b2555"/>
		</radialGradient>
		<radialGradient id="g51" cx="0" cy="0" r="1" gradientUnits="userSpaceOnUse" gradientTransform="matrix(40.046,0,0,40.046,67.354,22.208)">
			<stop offset="0" stop-color="#a1539a"/>
			<stop offset=".492" stop-color="#5c539a"/>
			<stop offset="1" stop-color="#3b2555"/>
		</radialGradient>
		<radialGradient id="g52" cx="0" cy="0" r="1" gradientUnits="userSpaceOnUse" gradientTransform="matrix(2.77,0,0,2.77,62.775,24.148)">
			<stop offset="0" stop-color="#a1539a"/>
			<stop offset=".452" stop-color="#5c539a"/>
			<stop offset="1" stop-color="#3b2555"/>
		</radialGradient>
	</defs>
	<style>
		.s0 { fill: #b4cc0c } 
		.s1 { opacity: .5;mix-blend-mode: screen;fill: #b4cc0c } 
		.s2 { mix-blend-mode: multiply;fill: #7dba2d } 
		.s3 { fill: #6ab42d } 
		.s4 { opacity: .5;mix-blend-mode: screen;fill: #6ab42d } 
		.s5 { fill: url(#g1) } 
		.s6 { fill: #4d292d } 
		.s7 { fill: url(#g2) } 
		.s8 { fill: url(#g3) } 
		.s9 { fill: url(#g4) } 
		.s10 { fill: url(#g5) } 
		.s11 { fill: #167aa8 } 
		.s12 { fill: url(#g6) } 
		.s13 { fill: url(#g7) } 
		.s14 { fill: url(#g8) } 
		.s15 { fill: url(#g9) } 
		.s16 { fill: url(#g10) } 
		.s17 { fill: url(#g11) } 
		.s18 { fill: url(#g12) } 
		.s19 { fill: url(#g13) } 
		.s20 { fill: url(#g14) } 
		.s21 { opacity: .5;mix-blend-mode: screen;fill: url(#g15) } 
		.s22 { fill: url(#g16) } 
		.s23 { fill: url(#g17) } 
		.s24 { fill: url(#g18) } 
		.s25 { fill: url(#g19) } 
		.s26 { fill: url(#g20) } 
		.s27 { fill: #231b3b } 
		.s28 { mix-blend-mode: multiply;fill: url(#g21) } 
		.s29 { fill: url(#g22) } 
		.s30 { fill: url(#g23) } 
		.s31 { mix-blend-mode: multiply;fill: url(#g24) } 
		.s32 { fill: url(#g25) } 
		.s33 { fill: url(#g26) } 
		.s34 { fill: url(#g27) } 
		.s35 { fill: url(#g28) } 
		.s36 { opacity: .3;mix-blend-mode: screen;fill: url(#g29) } 
		.s37 { fill: url(#g30) } 
		.s38 { fill: url(#g31) } 
		.s39 { opacity: .5;mix-blend-mode: screen;fill: url(#g32) } 
		.s40 { fill: url(#g33) } 
		.s41 { opacity: .5;mix-blend-mode: multiply;fill: url(#g34) } 
		.s42 { opacity: .5;mix-blend-mode: screen;fill: url(#g35) } 
		.s43 { fill: url(#g36) } 
		.s44 { fill: url(#g37) } 
		.s45 { fill: url(#g38) } 
		.s46 { fill: url(#g39) } 
		.s47 { fill: url(#g40) } 
		.s48 { fill: url(#g41) } 
		.s49 { fill: url(#g42) } 
		.s50 { opacity: .4;mix-blend-mode: screen;fill: url(#g43) } 
		.s51 { fill: url(#g44) } 
		.s52 { fill: url(#g45) } 
		.s53 { fill: url(#g46) } 
		.s54 { fill: url(#g47) } 
		.s55 { fill: url(#g48) } 
		.s56 { fill: url(#g49) } 
		.s57 { fill: url(#g50) } 
		.s58 { opacity: .5;mix-blend-mode: multiply;fill: url(#g51) } 
		.s59 { opacity: .5;mix-blend-mode: screen;fill: url(#g52) } 
	</style>
	<g id="&lt;Group&gt;">
		<path id="&lt;Path&gt;" class="s0" d="m20.4 53.1c0 0-12.1 1.1-12.4 5-0.3 3.9 16.4 6.4 16.4 6.4 0 0-7 0.8-7.2 3.5-0.2 2.7 16.1 4 32.6 1.8 11.1-1.8 7.9-2.2 6.5-2.6 7.9 0.3 32.1-7.1 22.8-9.9 7.1-1.1 28.1-11.7-1.7-11.5-29.7 0.3-57 7.3-57 7.3z"/>
		<path id="&lt;Path&gt;" class="s1" d="m84.7 47c0 0 8.9 0.3 5.4 2.6-3.5 2.3-11.1-2.2-5.4-2.6z"/>
		<path id="&lt;Path&gt;" class="s2" d="m13.9 53.9c0 0-2.5 1.4 0 1.9 1.1 0.9 2 0.5 2.6 0.4 0.7 1.5 2.2 0.8 3 0.4 0.3 0.1 14.5 11.2 14.5 11.2l12.5-3.7c0 0 0.5 1.6 1.9 1 0.7 1.3 2.8 0.5 3.4-0.2 1.4 0.9 2.4 0.8 2-0.2 1.9 1.1 3 0 3.1-0.4l1.4 0.9 3.4-1.3v-2.7l10.3-3.3 2.1 1.5 2.4-0.8-0.1-5 2.2-0.8c0 0 1 0.8 1.9 0.3 0.8 0.6 1 0.3 1.3-0.1 1.1 0.6 1.5-0.6 1.3-1 1.8-0.1 0.9-2 0-2.1 1.8-1.3-1.7-1.6-9.7-1.6-8.1 0-59.5 5.6-59.5 5.6z"/>
		<g id="&lt;Group&gt;">
			<path id="&lt;Path&gt;" class="s3" d="m78.1 47.1c0 0 0.2-0.6 0.7-0.4 0.4 0.2 0 0.8 0 0.8 0 0 0.3-0.3 0.3 0.4 0.3-0.5 0.5-0.3 0.5-0.2 0.1-0.8 2.1-0.6 1.4 1.1 0.4-0.1 0.4 0 0.1 0.4 0 0 1.3-0.5 1 0.9 0.9-0.4 1.7 1.2 0 1.7 0.2 0.5-0.1 0.6-0.7 0.3-0.1 0.6-0.8 0.6-1.2 0.2-0.2 0.5-0.8 0.2-0.9 0-0.3 0.5-0.6 0-0.8-0.3-0.4 0.8-1.4 0.6-1.4-0.2 0-0.8 1-4.7 1-4.7z"/>
			<path id="&lt;Path&gt;" class="s4" d="m79.2 48.3c0 0 0.1-0.7 0.6-0.3 0.3-0.6 1.2 0.2 0.5 0.8 0.4 0.3 0.6 0.4 0.1 0.7 1.3 0.4-0.3 1.6-1.1 0.7-0.9 0.5-1.4-0.2-0.9-0.6 0 0-0.2-0.5 0.3-0.6-0.4-0.5-0.2-1.3 0.5-0.7z"/>
			<path id="&lt;Path&gt;" class="s4" d="m81.2 50.6c0 0 0-0.3 0.3-0.2 0.1-0.2 0.5 0.1 0.2 0.4 0.1 0.2 0.3 0.2 0 0.3 0.6 0.2-0.1 0.7-0.5 0.3-0.4 0.3-0.6-0.1-0.4-0.3 0 0-0.1-0.2 0.2-0.2-0.2-0.2-0.1-0.6 0.2-0.3z"/>
		</g>
		<g id="&lt;Group&gt;">
			<path id="&lt;Path&gt;" class="s3" d="m18.8 48.9c0 0-0.3-0.8-0.9-0.5-0.6 0.2 0 1 0 1 0 0-0.5-0.3-0.5 0.5-0.2-0.6-0.6-0.4-0.5-0.2-0.2-1-2.7-0.8-1.8 1.3-0.5-0.1-0.5 0-0.1 0.6 0 0-1.7-0.7-1.3 1.1-1.1-0.6-2.1 1.5 0.1 2.1-0.3 0.6 0.1 0.8 0.8 0.4 0.1 0.8 1 0.7 1.5 0.2 0.3 0.6 1 0.3 1.1 0 0.4 0.6 0.8 0 1-0.3 0.5 0.9 1.8 0.7 1.8-0.3 0.1-1-1.2-5.9-1.2-5.9z"/>
			<path id="&lt;Path&gt;" class="s4" d="m17.3 50.4c0 0 0-0.9-0.7-0.4-0.4-0.8-1.5 0.2-0.6 1-0.5 0.5-0.8 0.5-0.1 0.9-1.7 0.6 0.3 2.1 1.3 0.8 1.2 0.8 1.9-0.2 1.2-0.7 0 0 0.2-0.7-0.4-0.7 0.5-0.6 0.2-1.6-0.7-0.9z"/>
			<path id="&lt;Path&gt;" class="s4" d="m14.8 53.3c0 0 0-0.4-0.3-0.2-0.1-0.4-0.7 0.1-0.2 0.4-0.3 0.2-0.4 0.3-0.1 0.4-0.8 0.3 0.2 1 0.6 0.4 0.5 0.3 0.8-0.1 0.5-0.3 0 0 0.1-0.3-0.1-0.3 0.2-0.3 0.1-0.8-0.4-0.4z"/>
		</g>
		<g id="&lt;Group&gt;">
			<path id="&lt;Path&gt;" class="s5" d="m18.8 29.8v25.5l15.4 11.9v-37.5z"/>
			<path id="&lt;Compound Path&gt;" fill-rule="evenodd" class="s6" d="m34.2 67.2q0 0 0 0l-15.4-11.9q0 0 0 0v-25.5q0-0.1 0-0.1l15.4-0.1q0.1 0 0.1 0 0 0 0 0.1v37.5q0 0 0 0 0 0-0.1 0zm-15.3-11.9l15.3 11.8v-37.4l-15.3 0.1z"/>
		</g>
		<g id="&lt;Group&gt;">
			<path id="&lt;Path&gt;" class="s7" d="m34.2 29.7v37.5l44.3-14.7v-23.2z"/>
			<path id="&lt;Compound Path&gt;" fill-rule="evenodd" class="s6" d="m34.2 67.2q0 0 0 0 0 0 0 0v-37.5q0-0.1 0-0.1l44.3-0.4q0 0 0 0.1 0 0 0 0v23.2q0 0 0 0l-44.2 14.7q0 0-0.1 0zm0.1-37.5v37.4l44.1-14.7v-23.1z"/>
		</g>
		<g id="&lt;Group&gt;" style="mix-blend-mode: multiply">
			<path id="&lt;Path&gt;" class="s8" d="m34.2 29.7v37.5l2.1-0.7c0-3.1 0.7-18.3 6.8-23.3 7.7-6.3 8.9 2.5 8.5 18.2l25.6-8.5c0.2-4.7 0.8-15.9-0.2-17.3-1.2-1.7-2-3.3 0-3.7 0.6-0.1 1.1 0.1 1.5 0.4v-3z"/>
		</g>
		<g id="&lt;Group&gt;">
			<path id="&lt;Path&gt;" class="s9" d="m52.6 38v23l5.9 3.5v-30.4z"/>
			<path id="&lt;Compound Path&gt;" fill-rule="evenodd" class="s6" d="m58.5 64.6q0 0 0 0l-5.9-3.5q-0.1 0-0.1-0.1v-23q0 0 0.1 0l5.9-3.9q0 0 0 0 0.1 0 0.1 0v30.4q0 0.1-0.1 0.1 0 0 0 0zm-5.9-3.6l5.9 3.5v-30.3l-5.9 3.9z"/>
		</g>
		<g id="&lt;Group&gt;">
			<g id="&lt;Group&gt;">
				<path id="&lt;Path&gt;" class="s10" d="m40.3 56.1l8.6-2.5v-7.2l-8.6 2.2z"/>
				<path id="&lt;Compound Path&gt;" fill-rule="evenodd" class="s11" d="m40.3 56.2q0 0 0 0 0 0 0-0.1v-7.5q0-0.1 0-0.1l8.6-2.1q0 0 0 0 0 0 0 0v7.2q0 0 0 0l-8.6 2.6q0 0 0 0zm0.1-7.6v7.5l8.5-2.6v-7z"/>
			</g>
			<g id="&lt;Group&gt;" style="opacity: .5;mix-blend-mode: screen">
				<path id="&lt;Path&gt;" class="s12" d="m48.9 46.4l-2.8 0.7-5.8 6.2v2.8l0.9-0.2 7.7-8.3z"/>
				<path id="&lt;Path&gt;" class="s13" d="m41.4 48.3l-1.1 1.2v1l2.5-2.5z"/>
				<path id="&lt;Path&gt;" class="s14" d="m48.9 49.7l-5.1 5.4 3.2-1 1.9-2z"/>
			</g>
			<g id="&lt;Group&gt;">
				<path id="&lt;Compound Path&gt;" fill-rule="evenodd" class="s15" d="m49.6 45.7v8.2l-9.9 3v-8.8zm-0.7 3c-1.2 0.3-2.6 0.7-3.8 1v2.6c1.6-0.4 3.2-0.9 3.8-1zm-8.6 4.8q0.4-0.1 1-0.3c0.9-0.2 2.1-0.5 3.2-0.8q0.1 0 0.1 0v-2.6c-1.9 0.5-3.6 1-4.3 1.2zm8.6-7.1l-3.8 1v1.7c1.6-0.4 3.2-0.8 3.8-1zm-8.6 2.2v1.8q0.4-0.1 1-0.3c0.9-0.2 2.1-0.5 3.2-0.8q0.1 0 0.1 0v-1.8zm0 7.6l4.2-1.3v-2c-1.9 0.5-3.6 0.9-4.2 1.1zm8.5-2.5v-1.9c-1.2 0.3-2.5 0.7-3.8 1v2z"/>
				<path id="&lt;Compound Path&gt;" fill-rule="evenodd" class="s6" d="m39.7 56.9q0 0-0.1 0 0 0 0 0v-8.8q0 0 0.1 0l9.9-2.5q0 0 0 0 0 0 0 0.1v8.2q0 0 0 0.1l-9.9 2.9q0 0 0 0zm0-8.7v8.6l9.8-2.9v-8.2zm0.6 8q0 0 0 0 0 0 0 0v-2.2q0 0 0 0c0.8-0.2 2.7-0.8 4.3-1.2q0 0 0 0 0 0.1 0 0.1v2q0 0 0 0l-4.2 1.3q0 0-0.1 0zm0.1-2.2v2.1l4.1-1.2v-2c-1.5 0.4-3.3 0.9-4.1 1.1zm4.7 0.8q-0.1 0-0.1 0 0 0 0 0v-2q0-0.1 0-0.1c1.3-0.3 2.7-0.7 3.9-1q0 0 0 0 0 0 0.1 0v1.9q-0.1 0-0.1 0l-3.8 1.2q0 0 0 0zm0-2v1.9l3.8-1.1v-1.8c-1.2 0.3-2.5 0.6-3.8 1zm-4.8 0.8q0 0 0-0.1 0 0 0 0v-2.5q0-0.1 0-0.1c0.6-0.2 2.1-0.5 4.3-1.1q0 0 0 0 0 0 0 0v2.6q0 0 0 0-2.1 0.6-3.2 0.9-0.7 0.2-1 0.3 0 0-0.1 0zm0.1-2.6v2.5q0.3-0.1 0.9-0.3 1.2-0.3 3.2-0.9v-2.4c-2.1 0.5-3.5 0.9-4.1 1.1zm4.7 1.3q-0.1 0-0.1 0 0 0 0-0.1v-2.5q0 0 0-0.1c1.3-0.3 2.7-0.7 3.9-1q0 0 0 0 0 0.1 0.1 0.1v2.5q-0.1 0.1-0.1 0.1c-0.6 0.1-2.2 0.5-3.8 1q0 0 0 0zm0-2.6v2.5c1.6-0.4 3.1-0.8 3.8-1v-2.5c-1.2 0.3-2.5 0.7-3.8 1zm-4.8 0.8q0 0 0 0 0 0 0-0.1v-1.8q0 0 0 0l4.3-1.1q0 0 0 0 0 0 0 0v1.8q0 0 0 0v0.1q-2.1 0.5-3.2 0.8-0.7 0.2-1 0.3 0 0-0.1 0zm0.1-1.9v1.8q0.3-0.1 0.9-0.3 1.2-0.3 3.2-0.8v-1.7zm4.7 0.6q0 0 0 0 0 0 0-0.1v-1.7q0-0.1 0-0.1l3.8-0.9q0.1 0 0.1 0 0 0 0 0v1.7q0 0.1 0 0.1c-0.7 0.1-2.2 0.5-3.9 1q0 0 0 0zm0-1.8v1.7c1.6-0.4 3.2-0.8 3.8-1v-1.6z"/>
			</g>
		</g>
		<g id="&lt;Group&gt;">
			<g id="&lt;Group&gt;">
				<path id="&lt;Path&gt;" class="s16" d="m30.2 53.7l-7.9-5.4v-7.2l7.9 5z"/>
				<path id="&lt;Compound Path&gt;" fill-rule="evenodd" class="s11" d="m30.2 53.7q0 0 0 0l-7.9-5.4q0 0 0 0v-7.2q0 0 0 0 0 0 0 0l7.9 5q0.1 0 0.1 0v7.6q0 0-0.1 0 0 0 0 0zm-7.8-5.4l7.8 5.3v-7.5l-7.8-4.9z"/>
			</g>
			<g id="&lt;Group&gt;" style="opacity: .5;mix-blend-mode: screen">
				<path id="&lt;Path&gt;" class="s17" d="m22.3 41.1l2.6 1.7 5.3 8v2.9l-0.7-0.5-7.2-10.9z"/>
				<path id="&lt;Path&gt;" class="s18" d="m29.2 45.5l1 1.5v1.1l-2.2-3.4z"/>
				<path id="&lt;Path&gt;" class="s19" d="m22.3 44.4l4.7 7.1-3-2-1.7-2.6z"/>
			</g>
			<g id="&lt;Group&gt;">
				<path id="&lt;Compound Path&gt;" fill-rule="evenodd" class="s20" d="m30.8 45.9v8.8l-9.1-6.3v-8.2zm-8.5 0c0.6 0.3 2 1.3 3.5 2.3v-2.6c-1.1-0.8-2.4-1.6-3.5-2.3zm7.9 2.6c-0.6-0.5-2.2-1.5-3.9-2.6v2.6q0 0 0 0c1.1 0.7 2.2 1.4 3 1.9q0.6 0.4 0.9 0.6zm-7.9-5.6c0.6 0.4 2 1.3 3.5 2.3v-1.8l-3.5-2.2zm4 0.8v1.8q0 0 0 0c1.1 0.7 2.2 1.4 3 1.9q0.6 0.4 0.9 0.6v-1.9zm3.9 7.9c-0.6-0.4-2.2-1.4-3.9-2.5v2l3.9 2.7zm-4.4-0.8v-2.1c-1.2-0.7-2.4-1.5-3.5-2.2v1.8z"/>
				<path id="&lt;Compound Path&gt;" fill-rule="evenodd" class="s6" d="m30.8 54.7q0 0 0 0l-9.1-6.2q0-0.1 0-0.1v-8.2q0-0.1 0-0.1 0 0 0 0l9.2 5.8q0 0 0 0v8.8q0 0 0 0-0.1 0-0.1 0zm-9.1-6.3l9.1 6.2v-8.7l-9.1-5.7zm8.5 5.4q0 0 0 0l-3.9-2.7q0 0 0 0v-2.1q0 0 0 0 0 0 0.1 0c1.9 1.3 3.3 2.2 3.8 2.5q0.1 0 0.1 0.1v2.1q0 0.1-0.1 0.1 0 0 0 0zm-3.8-2.8l3.8 2.6v-2c-0.6-0.4-1.9-1.3-3.8-2.5zm3.8 0.1q0 0 0 0-0.3-0.2-0.9-0.6-1.1-0.7-3-1.9v-0.1q0 0 0 0v-2.6q0 0 0 0 0 0 0.1 0c1.3 0.9 3.2 2.1 3.8 2.5q0.1 0.1 0.1 0.1v2.5q0 0.1-0.1 0.1 0 0 0 0zm-3.8-2.6q1.9 1.2 2.9 1.9 0.6 0.4 0.9 0.6v-2.5c-0.7-0.5-2.5-1.6-3.8-2.5zm-0.5 2.3q0 0 0 0l-3.6-2.4q0 0 0-0.1v-1.8q0-0.1 0-0.1 0 0 0 0c1.1 0.7 2.4 1.5 3.6 2.3q0 0 0 0.1v2q0 0 0 0 0 0 0 0zm-3.5-2.5l3.4 2.4v-1.9c-1.1-0.8-2.4-1.6-3.4-2.3zm3.5 0q0 0 0 0c-1.6-1-3-1.9-3.6-2.3q0 0 0 0v-2.6q0 0 0 0 0 0 0 0c1.1 0.7 2.4 1.5 3.6 2.3q0 0 0 0v2.6q0 0 0 0 0 0 0 0zm-3.5-2.3c0.5 0.3 1.9 1.2 3.4 2.2v-2.5c-1.1-0.7-2.4-1.5-3.4-2.2zm7.8 2.1q0 0 0 0-0.3-0.2-0.8-0.5l-0.1-0.1c-0.7-0.5-1.7-1.1-3-1.9q0 0 0-0.1v-1.7q0-0.1 0-0.1 0 0 0 0l3.9 2.5q0.1 0 0.1 0v1.9q0 0-0.1 0 0 0 0 0zm-3.8-2.6c1.3 0.8 2.2 1.5 2.9 1.9l0.1 0.1q0.5 0.3 0.8 0.5v-1.7l-3.8-2.5zm-0.5-0.2q0 0 0 0c-1.6-1-3-1.9-3.6-2.3q0 0 0 0v-1.7q0-0.1 0-0.1 0 0 0 0l3.6 2.3q0 0 0 0v1.8q0 0 0 0 0 0 0 0zm-3.5-2.3c0.5 0.3 1.9 1.2 3.4 2.2v-1.7l-3.4-2.2z"/>
			</g>
		</g>
		<path id="&lt;Path&gt;" class="s21" d="m70.4 30.1c0 0 4 4.4 5.2 5.8 1.2 1.4 0.5 1.4-0.5 0.3-1-1-7.8-8.8-4.7-6.1z"/>
		<g id="&lt;Group&gt;" style="mix-blend-mode: multiply">
			<path id="&lt;Path&gt;" class="s22" d="m58.5 34.1l-5.9 3.9v23l0.8 0.5c0.6-11.4 1.9-19.2 3.5-18.8 1.6 0.5 0.9 17.8 0.8 21.4l0.8 0.4z"/>
		</g>
		<g id="&lt;Group&gt;">
			<path id="&lt;Path&gt;" class="s23" d="m72 41.3v16l2.2 1.7c0-2.3 0-8.4 0-12.3q0-4.3-2.2-5.4z"/>
			<path id="&lt;Compound Path&gt;" fill-rule="evenodd" class="s6" d="m74.2 59.1q0 0 0 0l-2.2-1.8q0 0 0 0v-16q0 0 0 0 0 0 0.1 0 2.2 1.1 2.2 5.4v12.3q0 0.1 0 0.1-0.1 0-0.1 0zm-2.1-1.9l2.1 1.7v-12.2q0-4.2-2.1-5.3z"/>
		</g>
		<g id="&lt;Group&gt;">
			<g id="&lt;Group&gt;">
				<path id="&lt;Path&gt;" class="s24" d="m72 41.3q-1.5-0.7-4.2 0c-5.2 1.6-6.8 6.4-6.8 10.1 0 2.3 0 6.5 0 9.5l11-3.6z"/>
				<path id="&lt;Compound Path&gt;" fill-rule="evenodd" class="s6" d="m61 60.9q0 0 0 0 0 0 0 0v-9.5c0-2.1 0.5-4.2 1.4-5.8 1.2-2.2 3-3.6 5.4-4.3q1.4-0.4 2.4-0.4 1.1 0 1.9 0.4 0 0 0 0v16q0 0-0.1 0l-11 3.6q0 0 0 0zm9.2-19.9q-1 0-2.3 0.4c-6.4 1.9-6.9 8.2-6.9 10v9.4l11-3.6v-15.8q-0.8-0.4-1.8-0.4z"/>
			</g>
		</g>
		<g id="&lt;Group&gt;">
			<g id="&lt;Group&gt;">
				<g id="&lt;Group&gt;">
					<path id="&lt;Path&gt;" class="s25" d="m70.2 47.7c0-1.6-0.8-3-2.2-3.5-1.8-0.6-3.9 0.6-4.6 2.8q-0.3 0.7-0.3 1.4v0.2q0 0 0 0v11.6l7.1-2.3v-10.2q0 0 0 0z"/>
					<path id="&lt;Compound Path&gt;" fill-rule="evenodd" class="s6" d="m63.1 60.2q0 0 0 0-0.1 0-0.1 0v-11.8q0 0 0 0 0.1-0.7 0.3-1.4c0.6-1.8 2.2-3 3.7-3q0.6 0 1 0.2c1.4 0.4 2.2 1.8 2.2 3.4q0 0.1 0 0.1v10.2q0 0 0 0l-7.1 2.3q0 0 0 0zm0-11.8v11.7l7.1-2.3v-10.1q0 0 0 0c-0.1-1.7-0.9-3-2.2-3.4q-0.5-0.2-1-0.2c-1.5 0-3 1.2-3.6 2.9q-0.2 0.7-0.3 1.4 0 0 0 0z"/>
				</g>
			</g>
			<g id="&lt;Group&gt;">
				<g id="&lt;Group&gt;">
					<path id="&lt;Path&gt;" class="s26" d="m69.7 48.1c-0.1-1.5-0.8-2.7-1.9-3.2-1.6-0.5-3.3 0.6-4 2.6q-0.2 0.6-0.2 1.3v0.2q0 0 0 0v11l6.1-2v-9.9q0 0 0 0z"/>
					<path id="&lt;Compound Path&gt;" fill-rule="evenodd" class="s27" d="m63.6 60.1q0 0 0 0-0.1-0.1-0.1-0.1v-11.2q0-0.1 0-0.1 0.1-0.6 0.3-1.2c0.5-1.6 1.8-2.7 3.2-2.7q0.4 0 0.8 0.1c1.1 0.4 1.9 1.7 1.9 3.2q0 0 0 0v9.9q0 0 0 0l-6.1 2.1q0 0 0 0zm0-11.3v11.2l6-2.1v-9.8q0 0 0 0c0-1.5-0.7-2.7-1.8-3.1q-0.4-0.2-0.8-0.2c-1.4 0-2.6 1.1-3.1 2.7q-0.2 0.6-0.3 1.3 0 0 0 0z"/>
				</g>
			</g>
			<g id="&lt;Group&gt;">
				<path id="&lt;Compound Path&gt;" fill-rule="evenodd" class="s28" d="m69.7 48.1c0 0 0 9.8 0 9.9l-6.1 2c0 0 0-11.2 0-11.2q0-0.7 0.2-1.3c0.7-2 2.4-3.1 4-2.6 1.1 0.5 1.8 1.7 1.9 3.2zm-0.3 0.4c0-1.3-0.7-2.5-1.7-2.9-1.4-0.5-3 0.5-3.6 2.3q-0.2 0.6-0.2 1.2c0 0 0 10.2 0 10.2l5.5-1.8c0-0.1 0-9 0-9z"/>
			</g>
			<g id="&lt;Group&gt;">
				<path id="&lt;Path&gt;" class="s29" d="m67.5 46.3c-1.1-0.5-2.4 0.3-2.9 1.7q-0.1 0.5-0.1 1v0.1q0 0 0 0v1.2l4.3-1v-0.8q0 0 0 0c0-1.1-0.5-1.9-1.3-2.2z"/>
				<path id="&lt;Compound Path&gt;" fill-rule="evenodd" class="s11" d="m64.5 50.4q0 0-0.1 0 0-0.1 0-0.1v-1.3q0-0.1 0-0.1 0.1-0.4 0.2-0.9c0.4-1.1 1.3-1.9 2.3-1.9q0.3 0 0.6 0.1c0.8 0.3 1.3 1.2 1.3 2.3q0 0 0 0v0.8q0 0.1 0 0.1l-4.3 1q0 0 0 0zm0-1.4v1.3l4.2-1v-0.8q0 0 0 0c0-1.1-0.5-1.9-1.3-2.2q-0.2-0.1-0.5-0.1c-1 0-1.9 0.8-2.2 1.9q-0.2 0.4-0.2 0.9 0 0 0 0z"/>
			</g>
			<g id="&lt;Group&gt;">
				<path id="&lt;Compound Path&gt;" fill-rule="evenodd" class="s30" d="m69.2 48.5q0 0 0 0.1v1l-5.2 1.2c0 0 0-1.7 0-1.7q0-0.5 0.2-1.1c0.6-1.7 2.1-2.7 3.4-2.2 1 0.4 1.6 1.5 1.6 2.7zm-2.4-2.4v2l1.9-0.4c-0.2-0.7-0.6-1.2-1.2-1.4q-0.4-0.2-0.7-0.2zm-2.2 1.9q0 0.3-0.1 0.5l2-0.4v-1.9c-0.8 0.2-1.5 0.8-1.9 1.8zm-0.1 2.3l2-0.4v-1.4l-2 0.4q0 0 0 0.1c0 0 0 1.3 0 1.3zm4.3-1.8q0-0.3-0.1-0.5l-1.9 0.4v1.4l2-0.5c0 0 0-0.8 0-0.8z"/>
				<path id="&lt;Compound Path&gt;" fill-rule="evenodd" class="s6" d="m64 50.8q0 0 0 0 0 0 0 0v-1.7q0 0 0 0 0-0.6 0.2-1.1c0.4-1.4 1.6-2.3 2.7-2.3q0.4 0 0.7 0.1c1 0.4 1.7 1.4 1.7 2.7q0 0 0 0.1v1q0 0-0.1 0l-5.2 1.2q0 0 0 0zm0-1.7v1.6l5.2-1.2c0 0 0-1 0-1 0-1.2-0.6-2.3-1.6-2.6q-0.3-0.2-0.7-0.2c-1.1 0-2.2 1-2.6 2.3q-0.2 0.6-0.2 1.1 0 0-0.1 0zm0.5 1.3q0 0-0.1 0 0-0.1 0-0.1v-1.3q0-0.1 0-0.1 0 0 0 0v-0.1q0 0 0.1 0l2-0.4q0 0 0 0 0 0 0 0.1v1.4q0 0 0 0l-2 0.5q0 0 0 0zm0-1.4v1.3l2-0.5v-1.3l-2 0.4q0 0 0 0.1 0 0 0 0zm2.3 0.8q0 0 0 0 0 0 0 0v-1.4q0 0 0 0l1.9-0.4q0 0 0.1 0 0 0 0 0 0 0.2 0 0.5 0 0 0 0v0.8q0 0.1 0 0.1l-2 0.4q0 0 0 0zm0.1-1.4v1.3l1.8-0.4v-0.8q0 0 0 0 0-0.2 0-0.4zm-2.3 0.1q-0.1 0-0.1 0 0 0 0 0 0.1-0.3 0.1-0.5c0.4-1 1.1-1.7 1.9-1.9q0 0 0.1 0 0 0 0 0v2q0 0-0.1 0l-1.9 0.4q0 0 0 0zm1.9-2.3c-0.8 0.2-1.5 0.9-1.8 1.8q-0.1 0.2-0.1 0.4l1.9-0.4zm0.4 1.9q-0.1 0-0.1 0 0 0 0 0v-1.9q0-0.1 0.1-0.1 0.3 0 0.6 0.1c0.6 0.2 1.1 0.8 1.2 1.5q0.1 0 0 0.1 0 0 0 0l-1.8 0.3q0 0 0 0zm0-1.9v1.8l1.8-0.3c-0.2-0.7-0.7-1.2-1.2-1.4q-0.3-0.1-0.6-0.1z"/>
			</g>
			<path id="&lt;Path&gt;" class="s31" d="m64.7 53.8c-0.4 0-0.7-0.4-0.7-0.8 0-0.5 0.3-0.9 0.7-0.9 0.3 0 0.6 0.4 0.6 0.9 0 0.4-0.3 0.8-0.6 0.8z"/>
			<g id="&lt;Group&gt;">
				<path id="&lt;Path&gt;" class="s32" d="m64.5 53.5c-0.3 0-0.5-0.3-0.5-0.7 0-0.4 0.2-0.7 0.5-0.7 0.3 0 0.6 0.3 0.6 0.7 0 0.4-0.3 0.7-0.6 0.7z"/>
				<path id="&lt;Compound Path&gt;" fill-rule="evenodd" class="s6" d="m64.5 53.5c-0.3 0-0.5-0.3-0.5-0.7 0-0.4 0.2-0.7 0.5-0.7 0.4 0 0.6 0.3 0.6 0.7 0 0.4-0.2 0.7-0.6 0.7zm0.5-0.7c0-0.4-0.2-0.6-0.5-0.6-0.2 0-0.5 0.2-0.5 0.6 0 0.3 0.3 0.6 0.5 0.6 0.3 0 0.5-0.3 0.5-0.6z"/>
			</g>
		</g>
		<g id="&lt;Group&gt;" style="mix-blend-mode: multiply">
			<path id="&lt;Path&gt;" class="s33" d="m34.2 29.7l-15.4 0.1v25.5l0.2 0.2c-0.1-3.7-0.4-17 4.2-18.2 3.2-0.9 9.9 4.9 9.4 28.6l1.6 1.3z"/>
		</g>
		<g id="&lt;Group&gt;">
			<g id="&lt;Group&gt;">
				<g id="&lt;Group&gt;">
					<g id="&lt;Group&gt;">
						<path id="&lt;Path&gt;" class="s34" d="m32.9 20.7c0 0-13.4 6.9-14.6 7.7-1.3 0.8-0.4 1.3-0.4 1.3 0 0 15.8 11.6 16.7 12.3 0.4 0.3 0.6 0.4 0.9 0.5l-2.5-21.9z"/>
						<path id="&lt;Compound Path&gt;" fill-rule="evenodd" class="s27" d="m35.5 42.5q0 0 0 0c-0.3-0.1-0.6-0.2-0.9-0.5-0.9-0.6-16.6-12.2-16.8-12.3 0 0-0.3-0.2-0.3-0.5q0-0.4 0.7-0.8c1.3-0.8 14.5-7.7 14.7-7.8q0 0 0 0h0.1q0 0 0 0 0.1 0 0.1 0l2.4 21.9q0 0 0 0 0 0 0 0zm-2.6-21.8c-0.3 0.2-13.4 7-14.6 7.7q-0.7 0.4-0.7 0.8c0 0.3 0.3 0.5 0.3 0.5 0.1 0.1 15.8 11.6 16.7 12.3 0.4 0.2 0.6 0.4 0.8 0.4l-2.4-21.7z"/>
					</g>
					<g id="&lt;Group&gt;" style="opacity: .5;mix-blend-mode: multiply">
						<path id="&lt;Path&gt;" class="s35" d="m35.5 42.5l-2.5-21.9-0.1 0.1c0 0-13.4 6.9-14.6 7.7-0.6 0.4-0.8 0.7-0.7 0.9 2.9-1.4 9.3-4.3 11.8-5.1 3.4-0.9 3.2 6.2 3.6 11 0.4 4.7-2.2 3.2-11-2.4 4.8 3.5 12 8.8 12.6 9.2 0.4 0.3 0.6 0.4 0.9 0.5z"/>
					</g>
					<path id="&lt;Path&gt;" class="s36" d="m18.2 30c0 0 7.8-3.8 10.6-3.8 2.7 0 3.4 11.1-0.7 9.7-4.1-1.5-9.9-5.9-9.9-5.9z"/>
				</g>
				<g id="&lt;Group&gt;">
					<g id="&lt;Group&gt;">
						<path id="&lt;Path&gt;" class="s37" d="m79.2 28.6c-3.2-4-12.4-14.8-12.4-14.8l-33.8 6.8 2.5 21.9c0.4 0 0.7-0.1 1.5-0.3 1.2-0.4 40.4-11.8 41.4-12 0.9-0.3 1.7-0.5 0.8-1.6z"/>
						<path id="&lt;Compound Path&gt;" fill-rule="evenodd" class="s27" d="m35.7 42.5q-0.1 0-0.2 0-0.1 0-0.1 0l-2.4-21.9q0 0 0 0l33.8-6.8q0 0 0 0c0.1 0.1 9.3 10.8 12.4 14.8q0.6 0.6 0.4 1c-0.1 0.3-0.6 0.5-1.2 0.6-1.2 0.3-40.3 11.7-41.4 12-0.6 0.2-1 0.3-1.3 0.3zm-0.2-0.1c0.4 0.1 0.8 0 1.5-0.2 1.1-0.4 40.1-11.7 41.4-12.1 0.5-0.1 1-0.2 1.1-0.5q0.2-0.4-0.3-1c-3.1-3.8-12-14.2-12.4-14.7l-33.7 6.8z"/>
					</g>
					<g id="&lt;Group&gt;" style="opacity: .5;mix-blend-mode: multiply">
						<path id="&lt;Path&gt;" class="s38" d="m71.9 29.2c-1.6-1-2.6-2.4-8.5-6-5.9-3.7-5.3-4-8.3 2.7-2.9 6.6-4.3 10.7-9.7 12.1-5.5 1.4-8.6 2.4-9.5-4.4-1-7.6-2.4-9.9 7.4-12.2 9.8-2.3 16.8-4.4 21.3-5.1 4.4-0.6 8.7 5.4 8.7 5.4l0.2 0.1c-3.3-4-6.7-8-6.7-8l-33.8 6.8 2.5 21.9c0.4 0 0.7-0.1 1.5-0.3 1.2-0.4 40.4-11.8 41.4-12 0.9-0.2 1.7-0.4 0.9-1.5-4.8 1.5-6.1 1.5-7.4 0.5z"/>
					</g>
					<path id="&lt;Path&gt;" class="s39" d="m68.4 18.6c0 0-2.1-1.8-5.5-1.1-3.4 0.6-11.7 3.4-19.9 5.2-4.1 0.9-6.1 3.7-5.4 10.2 0.6 6.4 10.7 3.6 12.9-1.2 2.5-5.7 3.2-6.7 4.5-9.8 1.1-2.9 3.6-3.2 6.7-1.2 3.2 2.1 7.1 4.4 10.1 6.2 3 1.9 5 0.3 2.3-2.7-2.7-3.1-5.7-5.6-5.7-5.6z"/>
				</g>
				<g id="&lt;Group&gt;">
					<g id="&lt;Group&gt;">
						<path id="&lt;Path&gt;" class="s40" d="m66.8 13.8c0 0-31.4 7.9-33.2 8.2-1.7 0.3-2.3-0.6-1.6-1.1 0.6-0.4 31.7-7.7 31.7-7.7 0 0 2.2-0.6 3.1 0.6z"/>
						<path id="&lt;Compound Path&gt;" fill-rule="evenodd" class="s27" d="m33 22.1c-0.8 0-1.2-0.3-1.3-0.6-0.1-0.2 0-0.5 0.2-0.6 0.7-0.4 30.5-7.4 31.8-7.7 0 0 0.5-0.2 1.2-0.2 0.9 0 1.6 0.3 1.9 0.8q0.1 0 0 0 0 0.1 0 0.1c-0.3 0-31.4 7.8-33.1 8.2q-0.4 0-0.7 0zm31.9-9c-0.7 0-1.2 0.1-1.2 0.1-0.3 0.1-31 7.3-31.7 7.8q-0.3 0.2-0.2 0.5c0 0.3 0.5 0.5 1.2 0.5q0.3 0 0.6 0c1.7-0.3 31.6-7.8 33.1-8.2-0.4-0.6-1.2-0.7-1.8-0.7z"/>
					</g>
					<g id="&lt;Group&gt;">
						<path id="&lt;Path&gt;" class="s41" d="m66 13.2c-13.2 3.4-30.9 8-31.4 7.5-0.1-0.1-0.1-0.3 0.1-0.5-1.6 0.4-2.6 0.7-2.7 0.7-0.7 0.5-0.1 1.4 1.6 1.1 1.8-0.3 33.2-8.2 33.2-8.2-0.2-0.3-0.5-0.5-0.8-0.6z"/>
					</g>
					<path id="&lt;Path&gt;" class="s42" d="m42.2 18.4l19.5-4.7c0 0-9.4 3.2-19.5 4.7z"/>
				</g>
			</g>
		</g>
		<g id="&lt;Group&gt;" style="opacity: .4;mix-blend-mode: screen">
			<path id="&lt;Path&gt;" class="s43" d="m23.6 40c-3.7 0.2-4.1 12.4-4.2 15.7l10.1 7.8c-0.4-14.6-1.9-23.6-5.9-23.5z"/>
		</g>
		<g id="&lt;Group&gt;" style="opacity: .4;mix-blend-mode: screen">
			<path id="&lt;Path&gt;" class="s44" d="m45 45.1c-4.5 2.6-6.1 17.3-6.4 20.6l11.1-3.7c0.5-11.8 0.1-19.7-4.7-16.9z"/>
		</g>
		<g id="&lt;Group&gt;">
			<path id="&lt;Path&gt;" class="s45" d="m67.8 28.1l-9.3 6v30.4l2.5-0.8c0-1.9 0-9 0-12.3 0-3.7 1.6-8.5 6.8-10.1 4.3-1.2 6.4 0.5 6.4 5.4 0 3.9 0 10 0 12.3l1.9-0.6v-20.8z"/>
			<path id="&lt;Compound Path&gt;" fill-rule="evenodd" class="s6" d="m58.5 64.6q0 0 0 0 0 0 0-0.1v-30.4q0 0 0 0l9.3-6.1q0 0 0 0l8.4 9.6q0 0 0 0v20.8q0 0 0 0l-2 0.7q0 0 0 0 0-0.1 0-0.1v-12.3c0-3.8-1.3-5.7-4-5.7q-1 0-2.3 0.4c-6.4 1.9-6.9 8.2-6.9 10v12.3q0 0 0 0l-2.5 0.9q0 0 0 0zm0.1-30.4v30.3l2.4-0.9v-12.2c0-2.1 0.5-4.2 1.4-5.8 1.2-2.2 3-3.6 5.4-4.3q1.4-0.4 2.4-0.4c2.7 0 4.1 2 4.1 5.8v12.3l1.8-0.7v-20.6l-8.3-9.6z"/>
		</g>
		<g id="&lt;Group&gt;" style="mix-blend-mode: multiply">
			<path id="&lt;Compound Path&gt;" fill-rule="evenodd" class="s46" d="m76.1 37.6v20.8l-1.9 0.6c0-2.3 0-8.4 0-12.3 0-4.9-2.1-6.6-6.4-5.4-5.2 1.6-6.8 6.4-6.8 10.1 0 3.3 0 10.4 0 12.3l-2.5 0.8v-30.4l9.3-6zm-0.5 3.3c0-1.9-1.2-3.6-4.1-6.9-2.8-3.3-3.4-3.9-4.6-2-1.3 1.9-3.5 6.1-5.1 8.4-1.5 2.3-2.5 2.4-2.5 2.4v20.6l1.1-0.4c0 0 0-7.4 0-12.3 0-4.9 2.6-9.2 7.3-10.4 4.8-1.1 7.1 0.7 7.1 5.4 0 4.6 0 12.2 0 12.2l0.8-0.2c0 0 0-14.8 0-16.8z"/>
		</g>
		<g id="&lt;Group&gt;" style="mix-blend-mode: multiply">
			<path id="&lt;Path&gt;" class="s47" d="m72 41.3q-1.5-0.7-4.2 0-1.5 0.5-2.6 1.3c2.6-0.1 5.6 0.8 5.6 5 0 5.4 0 8.7 0 10.1l1.2-0.4z"/>
		</g>
		<g id="&lt;Group&gt;" style="opacity: .4;mix-blend-mode: screen">
			<path id="&lt;Path&gt;" class="s48" d="m63.8 43.7c-2.1 2.2-2.8 5.2-2.8 7.7 0 2.3 0 6.5 0 9.5l7.2-2.4c0-1.3 0-3.7 0-8.3 0-4.8-2.5-6.1-4.4-6.5z"/>
		</g>
		<g id="&lt;Group&gt;" style="mix-blend-mode: multiply">
			<path id="&lt;Path&gt;" class="s49" d="m74.1 44.7q-0.4-2.5-2.1-3.4v16l0.9 0.6c0-2.6 0-9.4 0-11.3 0-1.6 0.7-1.9 1.2-1.9z"/>
		</g>
		<path id="&lt;Path&gt;" class="s1" d="m13.2 56.6c0 0-5.2 0.5-2.8 2.8 2.3 2.3 14.8 5.1 11.5 2.4-3.2-2.7-0.6-3.6-3.8-3.4-3.2 0.1-1.8-1.8-4.9-1.8z"/>
		<path id="&lt;Path&gt;" class="s1" d="m20.9 66.7c0 0 3.8-2.2 8.9-0.4 5.1 1.7 3.4 3.5-3.9 3.2-7.3-0.3-6.7-2.2-5-2.8z"/>
		<path id="&lt;Path&gt;" class="s1" d="m36 68.4c0 0 9-3.5 11.2-1.7 3.9-0.8 10.1 0.6 3.1 1.8-7 1.1-19.3 2.2-14.3-0.1z"/>
		<path id="&lt;Path&gt;" class="s1" d="m64.3 62c0 0 6.6-4 7.3-1.9 1.6-0.2 5.6 1.2 0.6 2.8-5 1.7-11.6 1.7-7.9-0.9z"/>
		<path id="&lt;Path&gt;" class="s50" d="m65 40.3c1-0.2 2.3-0.8 2.9-0.8 1.4-0.2 3-0.3 4.3 0.1 2.4 0.8 0.7-2.4-2-5.1-1.7-1.7-3-0.8-4.1 1-0.5 0.7-3.5 5-1.1 4.8z"/>
		<g id="&lt;Group&gt;">
			<g id="&lt;Group&gt;">
				<g id="&lt;Group&gt;">
					<g id="&lt;Group&gt;">
						<g id="&lt;Group&gt;">
							<path id="&lt;Path&gt;" class="s51" d="m68.5 27.4q0.2 0.2 0.5 0.5c-0.1 0-0.2-0.3-0.5-0.5z"/>
							<path id="&lt;Path&gt;" class="s27" d="m69 28q-0.1 0-0.1 0l-0.4-0.5q0-0.1 0-0.1 0 0 0 0c0.3 0.2 0.5 0.4 0.5 0.5q0 0 0 0.1 0 0 0 0z"/>
						</g>
						<g id="&lt;Group&gt;">
							<path id="&lt;Path&gt;" class="s52" d="m69 28q0-0.1 0-0.1 0 0.1 0 0.1z"/>
							<path id="&lt;Path&gt;" class="s27" d="m69 28q0 0-0.1 0 0 0 0 0 0-0.1 0-0.1 0.1 0 0.1 0 0 0 0 0.1 0 0 0 0 0 0 0 0z"/>
						</g>
						<g id="&lt;Group&gt;">
							<path id="&lt;Path&gt;" class="s53" d="m76.8 36.8c-0.7-0.9-5.8-6.6-7.8-8.8q0 0 0-0.1-0.3-0.3-0.5-0.5c-0.3-0.2-0.7-0.3-1.3 0.1-1.1 0.9-8.2 13.2-8.2 13.2 0 0-0.6 0.8 0.2 1 0.3 0.1 0.7 0.1 0.9-0.2 0.3-0.6 6.7-11.2 7.2-11.9 0.4-0.8 0.8-0.9 1.7 0.3 0.9 1.2 6.1 7.3 6.7 8 0.7 0.7 1.8-0.1 1.1-1.1z"/>
							<path id="&lt;Compound Path&gt;" fill-rule="evenodd" class="s27" d="m59.5 41.8q-0.1 0-0.3 0-0.3-0.2-0.4-0.4c-0.1-0.3 0.1-0.7 0.1-0.8 0.3-0.5 7.2-12.3 8.3-13.1q0.7-0.5 1.3-0.1l0.5 0.5q0 0 0 0 0 0 0 0l0.1 0.2c2.1 2.3 7 7.8 7.7 8.7 0.3 0.3 0.3 0.7 0.2 1-0.2 0.3-0.4 0.4-0.7 0.4q-0.4 0-0.6-0.3c-0.6-0.6-5.8-6.7-6.8-8-0.4-0.6-0.7-0.9-1-0.9-0.2 0-0.4 0.2-0.6 0.6-0.4 0.8-6.8 11.3-7.2 11.9q-0.2 0.3-0.6 0.3zm8.4-14.5q-0.3 0-0.7 0.3c-1 0.8-8.1 13-8.2 13.1 0 0-0.2 0.4-0.1 0.7q0 0.2 0.3 0.3 0.2 0 0.3 0 0.4 0 0.5-0.3c0.4-0.5 6.8-11.1 7.2-11.8 0.2-0.4 0.4-0.7 0.7-0.7 0.3 0 0.6 0.3 1.1 1 0.9 1.2 6.1 7.3 6.7 8q0.3 0.2 0.6 0.2c0.2 0 0.5-0.1 0.6-0.3 0.1-0.2 0.2-0.5-0.2-1-0.6-0.9-5.5-6.4-7.6-8.7l-0.1-0.1q0 0-0.1 0 0 0 0 0l-0.4-0.5q-0.3-0.2-0.6-0.2z"/>
						</g>
					</g>
					<g id="&lt;Group&gt;">
						<g id="&lt;Group&gt;">
							<path id="&lt;Path&gt;" class="s54" d="m51.5 38l7.2 3.5c0 0 0.2 0.2 0.5 0.2-0.8-0.2-0.2-1-0.2-1 0 0 5.7-9.8 7.7-12.5l-9.2-5.4c-1 2.2-6 15.2-6 15.2z"/>
							<path id="&lt;Compound Path&gt;" fill-rule="evenodd" class="s27" d="m59.2 41.8q0 0 0 0c-0.3-0.1-0.5-0.2-0.5-0.2l-7.2-3.6q0 0 0-0.1c0-0.1 4.9-12.9 6-15.2q0 0 0 0 0 0 0 0l9.2 5.4q0 0.1 0 0.1 0 0 0 0c-2 2.7-7.6 12.4-7.7 12.5 0 0-0.2 0.4-0.1 0.7q0 0.2 0.3 0.3 0.1 0 0.1 0-0.1 0.1-0.1 0.1zm-7.6-3.9l7.1 3.6q0 0 0.2 0.1-0.1-0.1-0.1-0.2c-0.1-0.3 0.1-0.7 0.1-0.8 0.1-0.1 5.7-9.7 7.7-12.4l-9.1-5.4c-1 2.3-5.6 14.4-5.9 15.1z"/>
						</g>
						<g id="&lt;Group&gt;">
							<path id="&lt;Path&gt;" class="s55" d="m68.2 27.1c-0.9-1-8.9-5.2-8.9-5.2 0 0-1.1-0.4-1.7 0.6q0 0.1-0.1 0.3l9.2 5.4q0.3-0.5 0.5-0.7c0.6-0.4 1-0.3 1.3-0.1q-0.1-0.2-0.3-0.3z"/>
							<path id="&lt;Compound Path&gt;" fill-rule="evenodd" class="s27" d="m66.7 28.2q0 0-0.1 0l-9.1-5.4q-0.1 0 0-0.1 0-0.1 0.1-0.2c0.3-0.6 0.8-0.7 1.2-0.7 0.3 0 0.5 0 0.5 0 0.3 0.2 8 4.3 9 5.3l0.3 0.3q0 0 0 0.1-0.1 0-0.1 0-0.6-0.4-1.3 0.1-0.1 0.1-0.5 0.6 0 0 0 0zm-9.2-5.4l9.2 5.3q0.3-0.5 0.5-0.6 0.6-0.5 1.1-0.2l-0.1-0.1c-0.9-1.1-8.9-5.2-9-5.3 0 0-1-0.3-1.5 0.6q-0.1 0.1-0.2 0.3z"/>
						</g>
					</g>
					<g id="&lt;Group&gt;" style="opacity: .5;mix-blend-mode: multiply">
						<path id="&lt;Path&gt;" class="s56" d="m59 40.7c0 0 5.7-9.8 7.7-12.5l-9.2-5.4c-1 2.2-6 15.2-6 15.2l0.6 0.3c1.1-2.9 5.2-13.2 9.6-11 4.3 2.1-2.3 11.3-4.1 13.7l1.1 0.5c0 0 0.2 0.2 0.5 0.2-0.8-0.2-0.2-1-0.2-1z"/>
					</g>
					<g id="&lt;Group&gt;" style="opacity: .5;mix-blend-mode: multiply">
						<path id="&lt;Path&gt;" class="s57" d="m68.2 27.1q-0.2-0.2-0.7-0.6c-1.3 1.2-4.4-0.9-7.6-2.8-1.7-1-1.7-1.6-1.2-1.9-0.4 0-0.8 0.2-1.1 0.7q0 0.1-0.1 0.3l9.2 5.4q0.3-0.5 0.5-0.7c0.6-0.4 1-0.3 1.3-0.1q-0.1-0.2-0.3-0.3z"/>
					</g>
					<g id="&lt;Group&gt;">
						<path id="&lt;Path&gt;" class="s58" d="m75.7 37.4c-1.1-1.3-5.9-7-6.6-7.8-0.7-0.9-1.1-1.5-1.7-0.8-0.8 1-4.1 6.8-5.3 8.8-1.3 1.9-2.4 2.5-0.2-1.3 2.2-3.7 4.1-6.7 5-7.9 0.9-1.1 1.4-0.7 2-0.1 1.5 1.5 6.8 7.3 6.8 7.3l0.1 0.1c-1.7-2-5.2-5.9-6.8-7.7q0 0 0-0.1-0.3-0.3-0.5-0.5c-0.3-0.2-0.7-0.3-1.3 0.1-1.1 0.9-8.2 13.2-8.2 13.2 0 0-0.6 0.8 0.2 1 0.3 0.1 0.7 0.1 0.9-0.2 0.3-0.6 6.7-11.2 7.2-11.9 0.4-0.8 0.8-0.9 1.7 0.3 0.9 1.2 6.1 7.3 6.7 8 0.5 0.6 1.3 0.2 1.3-0.5-0.2 0.4-0.7 0.7-1.3 0z"/>
					</g>
				</g>
			</g>
			<path id="&lt;Path&gt;" class="s59" d="m59.8 22.3l6.4 3.6c0 0-0.3 0.5-2.6-0.5-2.3-1.1-5.4-3.4-3.8-3.1z"/>
		</g>
		<g id="&lt;Group&gt;">
			<path id="&lt;Path&gt;" class="s3" d="m48.1 61.5c0 0-1.6-0.8-1.1 1.1-0.7 0.6-0.1 1.1 0.7 1-0.3 0.8 0.4 1.1 1.4 0.5 0 1.3 1.5 0.4 1.7-0.4 0 0 2 1.5 2.5 0.1 0.8 0.7 3 0.1 1.7-1 1.4 0.4 1.3-0.9 0.2-0.9 1.2-0.2 0.9-1.9-0.3-1.1 0.6-0.8-0.7-0.5-0.8-0.2 1-1.2-0.1-1.7-0.4-1 0.3-1.1-1-0.9-1.3 0.3 0.8-2.6-1-1.4-1.4-0.2 0.4-2.1-1.5-1.8-1.5 0.2-0.6-2-2-0.4-1.4 1.6z"/>
			<path id="&lt;Path&gt;" class="s4" d="m48.6 61.8c0 0-0.6-1.7 0.6-0.8 0.1-1.2 0.8-0.9 0.7-0.1 0.8-1.4 1.9-0.4 1.2 0.6 1.4-1 1.5 0.4 0.6 0.5 1.4 0.3 0.3 1.4-0.7 0.6-0.3 0.8-1.2 0.8-1.2 0-0.7 0.7-2.5 0.1-1.2-0.8z"/>
			<path id="&lt;Path&gt;" class="s4" d="m53.2 61.8c0 0-0.4-1 0.3-0.5 0.1-0.7 0.5-0.5 0.5-0.1 0.4-0.8 1-0.2 0.6 0.4 0.9-0.6 0.9 0.2 0.4 0.3 0.8 0.2 0.2 0.8-0.4 0.3-0.2 0.5-0.7 0.5-0.7 0-0.5 0.4-1.5 0.1-0.7-0.4z"/>
		</g>
	</g>
</svg>